# xmcd CD database file
#
# Track frame offsets:
#	150
#	16446
#	30851
#	45543
#	59992
#	72291
#	86801
#	99129
#	111983
#	131081
#	142061
#	153934
#	171308
#	183639
#	200767
#	211621
#	223136
#	237457
#	253121
#	263134
#
# Disc length: 3699 seconds
#
# Revision: 5
# Processed by: cddbd v1.5.1PL0 Copyright (c) Steve Scherf et al.
# Submitted via: CDex 1.51
#
DISCID=310e7114
DTITLE=Verzameling - Country - The Essential Album - Disc I
DYEAR=2005
DGENRE=Country
TTITLE0=Kenny Rogers - Lucille
TTITLE1=Glenn Campbell - Rhinestone Cowboy
TTITLE2=Wynonna - Girls With Guitars
TTITLE3=Jeannie C. Reiley - Harper Valley P.T.R
TTITLE4=Tammy Wynette - Stand By Your Man
TTITLE5=Loretta Lynn - Coalminer's Daughter
TTITLE6=Freddy Fender - Wasted Days and Wastes Nights
TTITLE7=Alison Krauss and Union Station - Take Me For Longing
TTITLE8=Bobbie Gentry - Ode To Billie Joe
TTITLE9=Jim Croce - Time In A Bottle
TTITLE10=Skeeter Davis - The End Of The World
TTITLE11=The Judds - Love Can Build A Bridge
TTITLE12=Billie Jo Spears - The Cheatin' Kind
TTITLE13=Ray Price - For The Good Times
TTITLE14=Jim Reeves - Welcome To My World
TTITLE15=Sammi Smith - Help Me Make It Through The Night
TTITLE16=Bellamy Brothers - If A Said You Had A Beautiful Body (Would You Hold It Against Me?)
TTITLE17=Razzy Bailey - Your Cheatin' Heart
TTITLE18=Kitty Wells - I Can't Stop Loving You
TTITLE19=Deborah Allen - I will Always Love You
EXTD=YEAR: 2005
EXTT0=
EXTT1=
EXTT2=
EXTT3=
EXTT4=
EXTT5=
EXTT6=
EXTT7=
EXTT8=
EXTT9=
EXTT10=
EXTT11=
EXTT12=
EXTT13=
EXTT14=
EXTT15=
EXTT16=
EXTT17=
EXTT18=
EXTT19=
PLAYORDER=
